<svg id="Layer_1" data-name="Layer 1" xmlns="http://www.w3.org/2000/svg" viewBox="0 0 223.98 136.52"><defs><style>.cls-1{fill:#003368;}</style></defs><path class="cls-1" d="M52.94,142.63H46.1l-3.05-18.9-9.26,18.84H32.15l-9.26-18.82-3.05,18.88H13l4.84-28.95h6.73L33,131.43l8.42-17.75h6.74Z" transform="translate(-13.01 -6.74)"/><path class="cls-1" d="M72.53,143.26A18.45,18.45,0,0,1,66,142.1a16.2,16.2,0,0,1-5.27-3.16,14.45,14.45,0,0,1-3.46-4.81,14.69,14.69,0,0,1,0-11.95,14.45,14.45,0,0,1,3.46-4.81A16.37,16.37,0,0,1,66,114.21a19.18,19.18,0,0,1,13.11,0,15.88,15.88,0,0,1,5.24,3.16,14.78,14.78,0,0,1,0,21.59,15.88,15.88,0,0,1-5.24,3.16A18.36,18.36,0,0,1,72.53,143.26Zm-6.94-8.55a9.72,9.72,0,0,0,6.94,2.65,9.61,9.61,0,0,0,6.9-2.63,9.18,9.18,0,0,0,0-13.14,9.65,9.65,0,0,0-6.9-2.62,9.75,9.75,0,0,0-6.94,2.64,9,9,0,0,0,0,13.1Z" transform="translate(-13.01 -6.74)"/><path class="cls-1" d="M114.64,113.68v5.81H106v23.14h-6.7V119.49H90.7v-5.81Z" transform="translate(-13.01 -6.74)"/><path class="cls-1" d="M132.89,143.26a18.53,18.53,0,0,1-6.57-1.16,16.3,16.3,0,0,1-5.27-3.16,14.59,14.59,0,0,1-3.46-4.81,14.8,14.8,0,0,1,0-11.95,14.59,14.59,0,0,1,3.46-4.81,16.48,16.48,0,0,1,5.27-3.16,19.21,19.21,0,0,1,13.12,0,15.83,15.83,0,0,1,5.23,3.16,14.75,14.75,0,0,1,0,21.59,15.83,15.83,0,0,1-5.23,3.16A18.38,18.38,0,0,1,132.89,143.26ZM126,134.71a9.73,9.73,0,0,0,6.94,2.65,9.58,9.58,0,0,0,6.9-2.63,9.18,9.18,0,0,0,0-13.14,9.61,9.61,0,0,0-6.9-2.62,9.77,9.77,0,0,0-6.94,2.64,9,9,0,0,0,0,13.1Z" transform="translate(-13.01 -6.74)"/><path class="cls-1" d="M173,113.68h6.71v28.95H173v-12H161.31v12h-6.7V113.68h6.7v11.16H173Z" transform="translate(-13.01 -6.74)"/><path class="cls-1" d="M207.38,142.63l-2.16-5.49H192.87l-2.12,5.49h-7.12l12.16-28.95h6.31l12.55,28.95ZM199,121.33l-4,10.36h8.13Z" transform="translate(-13.01 -6.74)"/><path class="cls-1" d="M237,113.68v5.81h-8.63v23.14h-6.7V119.49h-8.61v-5.81Z" transform="translate(-13.01 -6.74)"/><path class="cls-1" d="M125,6.74c-42.95,0-77.77,21.84-77.77,48.78A32.59,32.59,0,0,0,51.1,70.75c.52,1,1.1,2,1.73,3C65.6,56.27,82,35.49,84.75,32.5A5.82,5.82,0,0,1,89,30.45a8.5,8.5,0,0,1,5.35,2.47c6.7,4.33,19.36,16.21,30.61,27.29.23.22.46.44.68.67,1.84,1.81,3.63,3.59,5.35,5.31l.64.65c8.85,8.87,15.57,15.91,15.57,15.91s-1,7.6-3.68,7.6a2.43,2.43,0,0,1-1.66-.88c-2.34-2.37-8.34-9.8-16.22-17.14-.22-.22-.45-.43-.68-.64-1.74-1.61-3.53-3.24-5.31-4.85l-.72-.65c-8.14-7.31-16.13-14.06-19.7-16.68-4.33-3.18-6.79-4.77-8.74-4.78-1.71,0-3,1.22-4.88,3.65S73,72,65.37,86.83c14.27,10.68,35.69,17.46,59.63,17.46s45.36-6.78,59.63-17.46C177.05,72,166.11,50.7,164.35,48.38c-4-5.22-5.5-4.83-13.63,1.13C147.4,52,140.24,58,132.7,64.69l-5.33-5.3-.77-.75C137.43,48,149.22,37,155.6,32.92c0,0,5.09-5.26,9.65-.42,2.8,3,19.15,23.77,31.92,41.23a39.33,39.33,0,0,0,2.29-4.09,32.23,32.23,0,0,0,3.31-14.12C202.77,28.58,168,6.74,125,6.74ZM108.1,89.47c-3.92,4-5.34-6.71-5.34-6.71s6.25-6.56,14.64-15l.68.62c1.94,1.75,3.67,3.34,5.29,4.84C116,80.26,110.35,87.2,108.1,89.47Z" transform="translate(-13.01 -6.74)"/></svg>