<svg id="Layer_1" data-name="Layer 1" xmlns="http://www.w3.org/2000/svg" viewBox="0 0 174.95 174.95"><defs><style>.cls-1{fill:#fff;}.cls-2{fill:#003368;}</style></defs><rect class="cls-1" width="174.95" height="174.95" rx="12.63"/><path class="cls-2" d="M149.27,90.48a28.09,28.09,0,0,1-2.55,11.62,30.89,30.89,0,0,1-1.76,3.37C135.15,91.1,122.57,74,120.42,71.53c-3.5-4-7.41.34-7.41.34C108.1,75.26,99,84.31,90.71,93c1.57,1.66,3.15,3.34,4.69,5,5.79-5.53,11.3-10.49,13.86-12.5,6.24-4.91,7.42-5.22,10.47-.93,1.36,1.91,9.76,19.41,15.59,31.66-11,8.79-27.43,14.38-45.84,14.38s-34.87-5.59-45.84-14.38C49.47,104,57.87,86.51,59.23,84.6s2.44-3,3.75-3c1.5,0,3.39,1.31,6.72,3.93,2.75,2.15,8.89,7.71,15.15,13.73l.55.54c1.37,1.32,2.74,2.66,4.08,4l.53.53c6,6,10.66,12.16,12.46,14.11a1.84,1.84,0,0,0,1.28.73c2,0,2.83-6.26,2.83-6.26s-5.17-5.8-12-13.1l-.5-.54L90,94.89l-.53-.55C80.83,85.22,71.1,75.43,66,71.87a6.4,6.4,0,0,0-4.11-2,4.32,4.32,0,0,0-3.3,1.69C56.39,74,43.81,91.1,34,105.47c-.49-.8-.93-1.62-1.34-2.45a28.37,28.37,0,0,1-3-12.54c0-22.19,26.77-40.16,59.79-40.16S149.27,68.29,149.27,90.48Z" transform="translate(-2 -3)"/><path class="cls-1" d="M84.16,101.08c1.49,1.44,2.82,2.74,4.06,4-5.69,5.8-10,11.51-11.73,13.38-3,3.27-4.11-5.53-4.11-5.53s4.81-5.39,11.26-12.33Z" transform="translate(-2 -3)"/></svg>